<svg width="42" height="48" viewBox="0 0 42 48" fill="none" xmlns="http://www.w3.org/2000/svg">
<path d="M21 5.33307C16.8466 5.33307 12.7865 6.5647 9.33304 8.87221C5.8796 11.1797 3.18798 14.4595 1.59854 18.2967C0.00909887 22.134 -0.406771 26.3564 0.403519 30.43C1.21381 34.5036 3.21386 38.2454 6.15077 41.1823C9.08767 44.1192 12.8295 46.1193 16.9031 46.9296C20.9767 47.7399 25.1991 47.324 29.0364 45.7345C32.8736 44.1451 36.1534 41.4535 38.4609 38C40.7684 34.5466 42 30.4865 42 26.3331C42 20.7635 39.7875 15.4221 35.8493 11.4838C31.911 7.54556 26.5696 5.33307 21 5.33307ZM21 42.6664C17.7696 42.6664 14.6117 41.7085 11.9257 39.9137C9.23969 38.119 7.14621 35.5681 5.90998 32.5836C4.67375 29.599 4.35029 26.315 4.98052 23.1466C5.61074 19.9782 7.16634 17.0679 9.4506 14.7837C11.7349 12.4994 14.6452 10.9438 17.8135 10.3136C20.9819 9.68335 24.266 10.0068 27.2505 11.243C30.235 12.4793 32.786 14.5728 34.5807 17.2588C36.3754 19.9448 37.3333 23.1026 37.3333 26.3331C37.3333 30.6649 35.6125 34.8194 32.5494 37.8825C29.4863 40.9456 25.3319 42.6664 21 42.6664ZM29.05 4.9364C28.7639 4.78294 28.513 4.57145 28.3133 4.31548C28.1136 4.0595 27.9695 3.76467 27.8902 3.44983C27.811 3.13499 27.7983 2.80708 27.853 2.48706C27.9077 2.16704 28.0286 1.86196 28.2079 1.59132C28.3873 1.32069 28.6211 1.09045 28.8945 0.915348C29.1679 0.740242 29.4748 0.624117 29.7956 0.574398C30.1165 0.524679 30.4441 0.542461 30.7577 0.626606C31.0713 0.71075 31.3638 0.859407 31.6167 1.06307L38.6167 5.72974C39.0305 6.00777 39.3443 6.41103 39.5123 6.88042C39.6802 7.3498 39.6934 7.86064 39.5499 8.33807C39.4064 8.8155 39.1138 9.23442 38.7149 9.53345C38.316 9.83248 37.8319 9.99589 37.3333 9.99974C36.8746 10.005 36.4258 9.86625 36.05 9.60307L29.05 4.9364ZM2.73001 8.94974C2.3923 8.43532 2.27148 7.80832 2.39384 7.20525C2.51621 6.60217 2.87185 6.07185 3.38334 5.72974L10.3833 1.06307C10.6362 0.859407 10.9287 0.71075 11.2423 0.626606C11.5559 0.542461 11.8836 0.524679 12.2044 0.574398C12.5252 0.624117 12.8321 0.740242 13.1055 0.915348C13.3789 1.09045 13.6128 1.32069 13.7921 1.59132C13.9714 1.86196 14.0923 2.16704 14.147 2.48706C14.2017 2.80708 14.189 3.13499 14.1098 3.44983C14.0305 3.76467 13.8864 4.0595 13.6867 4.31548C13.487 4.57145 13.2361 4.78294 12.95 4.9364L5.95001 9.60307C5.57424 9.86625 5.12541 10.005 4.66668 9.99974C4.28236 9.99775 3.90448 9.90086 3.56662 9.71768C3.22876 9.53451 2.94138 9.27071 2.73001 8.94974ZM27.3233 29.3431C27.542 29.56 27.7156 29.8181 27.8341 30.1024C27.9526 30.3867 28.0135 30.6917 28.0135 30.9997C28.0135 31.3078 27.9526 31.6127 27.8341 31.8971C27.7156 32.1814 27.542 32.4395 27.3233 32.6564C27.1064 32.8751 26.8484 33.0487 26.564 33.1671C26.2797 33.2856 25.9747 33.3466 25.6667 33.3466C25.3587 33.3466 25.0537 33.2856 24.7693 33.1671C24.485 33.0487 24.2269 32.8751 24.01 32.6564L19.3433 27.9897C19.1271 27.7717 18.956 27.5131 18.8399 27.2289C18.7238 26.9446 18.6649 26.6402 18.6667 26.3331V16.9997C18.6667 16.3809 18.9125 15.7874 19.3501 15.3498C19.7877 14.9122 20.3812 14.6664 21 14.6664C21.6188 14.6664 22.2123 14.9122 22.6499 15.3498C23.0875 15.7874 23.3333 16.3809 23.3333 16.9997V25.3764L27.3233 29.3431Z" fill="white"/>
</svg>
